# xmcd CD database file
#
# Track frame offsets:
#	150
#	22059
#	40337
#	70937
#	92294
#	112785
#	137710
#	174938
#	188298
#	212081
#	231073
#	263615
#
# Disc length: 3720 seconds
#
# Revision: 0
# Processed by: cddbd v1.4PL0 Copyright (c) Steve Scherf et al.
# Submitted via: CDex 1.50
#
DISCID=900e860c
DTITLE=Gwen Hughes - Lost And Found
DYEAR=2001
DGENRE=Jazz
TTITLE0=Stranger's Kiss (Pretty Paradise)
TTITLE1=The One Who Fooled Them All
TTITLE2=This Fire
TTITLE3=Dreams You Don't See
TTITLE4=Annie's Song
TTITLE5=You Make Me Feel Like Candy
TTITLE6=I'm Not In Love
TTITLE7=Under My Thumb
TTITLE8=Lights Of The City
TTITLE9=Grace Rain Down
TTITLE10=Running
TTITLE11=Moonlight Serenade
EXTD=YEAR: 2001
EXTT0=
EXTT1=
EXTT2=
EXTT3=
EXTT4=
EXTT5=
EXTT6=
EXTT7=
EXTT8=
EXTT9=
EXTT10=
EXTT11=
PLAYORDER=
